<?xml version="1.0" encoding="UTF-8"?> <svg xmlns="http://www.w3.org/2000/svg" width="60" height="60" viewBox="0 0 60 60" fill="none"><path fill-rule="evenodd" clip-rule="evenodd" d="M9.2309 30.3286C9.05512 30.3286 8.86757 30.2583 8.73871 30.1177L0.207485 21.5982C-0.0620003 21.3288 -0.0620003 20.8833 0.207485 20.6021L3.79343 17.0161C3.92229 16.8873 4.10984 16.8052 4.28562 16.8052C4.47317 16.8052 4.64895 16.8755 4.77781 17.0161L5.01214 17.2505C6.06683 18.3052 7.77773 18.3052 8.83242 17.2622C8.83242 17.2622 8.83242 17.2622 8.84418 17.2505C9.89887 16.1958 9.89887 14.4849 8.84418 13.4302L8.60985 13.1959C8.48099 13.067 8.39892 12.8795 8.39892 12.7037C8.39892 12.5161 8.46923 12.3404 8.60985 12.2115L15.3365 5.48486C15.3716 5.4497 15.4186 5.40278 15.4771 5.37939C15.8053 5.18022 23.5162 0.656674 30.1839 3.50434C30.4534 3.62158 30.6292 3.90283 30.6058 4.1957C30.5824 4.48872 30.3831 4.74644 30.0902 4.82852C28.1333 5.37926 22.8833 7.41833 22.2037 10.2777C21.8873 11.5903 22.5787 13.0433 24.2545 14.5668C24.3952 14.6957 24.4772 14.8832 24.4889 15.0708C24.5005 15.2583 24.4185 15.4457 24.2779 15.5864L18.1373 21.727C18.0085 21.8558 17.8209 21.9379 17.6451 21.9379C17.4576 21.9379 17.2818 21.8676 17.1529 21.727L16.9186 21.4926C15.8639 20.4379 14.153 20.4379 13.0983 21.4926C12.5944 21.9966 12.3131 22.6762 12.3131 23.4028C12.3131 24.1294 12.5944 24.8091 13.0983 25.313L13.3327 25.5474C13.6021 25.8169 13.6021 26.2623 13.3327 26.5435L9.72304 30.1293C9.58241 30.2583 9.40668 30.3286 9.2309 30.3286ZM1.69581 21.106L9.2309 28.6411L11.8325 26.0396C11.2231 25.3013 10.8833 24.3872 10.8833 23.4146C10.8833 22.313 11.3051 21.2818 12.0786 20.5084C13.5903 18.9967 15.9927 18.9146 17.6099 20.2505L22.7661 15.0943C21.0786 13.3599 20.4224 11.6372 20.8207 9.94971C21.5121 7.06688 25.2153 5.14506 27.6177 4.19582C22.4263 3.17629 16.9301 6.16459 16.2388 6.5513L10.063 12.7271C11.399 14.3325 11.3169 16.7349 9.81693 18.2466L9.80516 18.2584C8.29344 19.7701 5.89104 19.8522 4.27385 18.5162L1.69581 21.106Z" fill="white"></path><path fill-rule="evenodd" clip-rule="evenodd" d="M47.3518 51.6451C47.176 51.6451 46.9885 51.5748 46.8596 51.4342L23.9144 28.5007C23.7856 28.3718 23.7035 28.1843 23.7035 28.0085C23.7035 27.8327 23.7738 27.6452 23.9144 27.5163L30.0549 21.3757C30.3244 21.1062 30.7698 21.1062 31.051 21.3757L53.9963 44.2973C54.1252 44.4262 54.2073 44.6137 54.2073 44.7895C54.2073 44.9653 54.137 45.1529 53.9963 45.2817L47.8557 51.4223C47.7151 51.5747 47.5276 51.6451 47.3518 51.6451ZM25.4144 28.0085L47.3518 49.9459L52.4964 44.8013L30.5588 22.8521L25.4143 28.0084L25.4144 28.0085Z" fill="white"></path><path fill-rule="evenodd" clip-rule="evenodd" d="M50.4223 48.563C50.2465 48.563 50.0589 48.4927 49.9301 48.3521L26.9965 25.4303C26.727 25.1608 26.727 24.7154 26.9965 24.4342C27.266 24.1647 27.7114 24.1647 27.9926 24.4342L50.9261 47.3676C51.1956 47.6371 51.1956 48.0825 50.9261 48.3638C50.7855 48.5044 50.5981 48.563 50.4223 48.563Z" fill="white"></path><path fill-rule="evenodd" clip-rule="evenodd" d="M54.6293 57.434C53.4809 57.434 52.4496 57.0239 51.6761 56.2505L46.848 51.4223C46.7191 51.2934 46.637 51.1059 46.637 50.9301C46.637 50.7426 46.7073 50.5668 46.848 50.4379L52.9886 44.2973C53.258 44.0278 53.7035 44.0278 53.9847 44.2973L58.8129 49.1255C60.5473 50.8599 60.348 53.8716 58.3792 55.8404C57.4418 56.7778 56.2347 57.3403 54.9925 57.4342C54.8754 57.434 54.7464 57.434 54.6293 57.434ZM48.3481 50.9419L52.6723 55.2661C53.223 55.8168 54.02 56.0981 54.8871 56.0278C55.8012 55.9575 56.6919 55.5356 57.3832 54.8442C58.8013 53.4262 59.0004 51.3052 57.8169 50.1215L53.4927 45.7973L48.3481 50.9419Z" fill="white"></path><path fill-rule="evenodd" clip-rule="evenodd" d="M24.4185 28.7116C24.2427 28.7116 24.0552 28.6412 23.9263 28.5006L17.1411 21.7154C17.0123 21.5866 16.9302 21.399 16.9302 21.2232C16.9302 21.0475 17.0005 20.8599 17.1411 20.7311L23.2817 14.5905C23.4106 14.4616 23.5981 14.3795 23.7739 14.3795C23.9497 14.3795 24.1372 14.4498 24.2661 14.5905L31.0511 21.3756C31.3206 21.6451 31.3206 22.0905 31.0511 22.3718L24.9107 28.5124C24.7817 28.6412 24.5943 28.7116 24.4185 28.7116ZM18.6294 21.2232L24.4185 27.0123L29.5631 21.8677L23.774 16.0787L18.6294 21.2232Z" fill="white"></path></svg> 