<?xml version="1.0" encoding="UTF-8"?> <svg xmlns="http://www.w3.org/2000/svg" width="60" height="60" viewBox="0 0 60 60" fill="none"><g clip-path="url(#clip0_4669_4206)"><path d="M30 59.2592C46.1595 59.2592 59.2593 46.1594 59.2593 30C59.2593 13.8405 46.1595 0.740723 30 0.740723C13.8406 0.740723 0.740753 13.8405 0.740753 30C0.740753 46.1594 13.8406 59.2592 30 59.2592Z" stroke="white" stroke-width="2" stroke-miterlimit="10" stroke-linecap="round" stroke-linejoin="round"></path><path d="M17.2786 37.6328C21.9518 37.6328 25.7596 33.3232 25.7596 28.1341C25.7596 23.033 18.144 14.8536 17.7979 14.5018L17.2786 13.8861L16.7593 14.4138C16.4132 14.7657 8.79764 22.9451 8.79764 28.0462C8.79764 33.3232 12.6054 37.6328 17.2786 37.6328Z" stroke="white" stroke-width="2" stroke-miterlimit="10" stroke-linecap="round" stroke-linejoin="round"></path><path d="M17.9146 35.0886C14.5265 35.0886 11.7659 31.9334 11.7659 28.0698" stroke="white" stroke-width="2" stroke-miterlimit="10" stroke-linecap="round" stroke-linejoin="round"></path><path d="M34.6645 23.6393C37.9357 23.6393 40.6012 20.638 40.6012 17.0242C40.6012 13.4716 35.2703 7.77521 35.028 7.53017L34.6645 7.10144L34.301 7.46891C34.0587 7.71395 28.7278 13.4103 28.7278 16.9629C28.7278 20.638 31.3933 23.6393 34.6645 23.6393Z" stroke="white" stroke-width="2" stroke-miterlimit="10" stroke-linecap="round" stroke-linejoin="round"></path><path d="M48.1481 42.963H11.8519V47.4075H48.1481V42.963Z" stroke="white" stroke-width="2" stroke-miterlimit="10" stroke-linecap="round" stroke-linejoin="round"></path><path d="M27.4556 35.9366L34.4524 42.9334L50.3542 27.0316" stroke="white" stroke-width="2" stroke-miterlimit="10" stroke-linecap="round" stroke-linejoin="round"></path><path d="M44.4176 26.6075H50.7783V32.5442" stroke="white" stroke-width="2" stroke-miterlimit="10" stroke-linecap="round" stroke-linejoin="round"></path></g><defs><clipPath id="clip0_4669_4206"><rect width="60" height="60" fill="white"></rect></clipPath></defs></svg> 