<?xml version="1.0" encoding="UTF-8"?> <svg xmlns="http://www.w3.org/2000/svg" width="60" height="60" viewBox="0 0 60 60" fill="none"><path d="M40.1748 32.7612C39.0822 31.6686 37.3032 31.6686 36.21 32.7612L36.1704 32.8008L35.3916 32.022L43.101 24.3132C47.0904 25.539 51.357 24.4914 54.3162 21.5322C56.9184 18.93 58.0782 15.2154 57.4182 11.5962C57.378 11.3766 57.2196 11.1972 57.0066 11.1312C56.7942 11.0646 56.562 11.1222 56.4036 11.28L51.0312 16.6518L44.4084 15.5916L43.3482 8.96879L48.72 3.59639C48.8778 3.43859 48.9348 3.20639 48.8688 2.99339C48.8028 2.78039 48.6234 2.62199 48.4038 2.58179C44.7852 1.92299 41.07 3.08159 38.4678 5.68379C35.5086 8.64299 34.4604 12.909 35.6868 16.899L27.978 24.609L11.8926 8.52359C11.832 8.46299 11.7588 8.41619 11.679 8.38619L7.6488 6.87659C7.428 6.79439 7.1802 6.84779 7.014 7.01399C6.8478 7.18019 6.7938 7.42859 6.8766 7.64879L8.3862 11.679C8.4162 11.7594 8.463 11.832 8.5236 11.8926L24.609 27.978L16.8996 35.6868C12.9096 34.4604 8.643 35.5092 5.6844 38.4678C3.0816 41.07 1.9218 44.7846 2.5818 48.4038C2.622 48.6234 2.7804 48.8028 2.9934 48.8688C3.2064 48.936 3.4386 48.8784 3.5964 48.72L8.9688 43.3482L15.5916 44.4084L16.6518 51.0312L11.28 56.4036C11.1222 56.5614 11.0652 56.7936 11.1312 57.0066C11.1972 57.2196 11.3766 57.378 11.5962 57.4182C12.2652 57.54 12.9378 57.6 13.6056 57.6C16.551 57.6 19.4112 56.4372 21.5322 54.3156C24.4914 51.357 25.5396 47.0904 24.3132 43.1004L32.022 35.391L32.8008 36.1698L32.7612 36.2094C31.668 37.3026 31.668 39.081 32.7612 40.1742L47.304 54.717C47.8476 55.2606 48.5616 55.5318 49.2768 55.5318C49.995 55.5318 50.7144 55.2576 51.2622 54.7098L54.711 51.261C55.8042 50.1678 55.8072 48.3924 54.7176 47.3034L40.1748 32.7612ZM38.2158 43.9326L39.3804 42.768L44.7066 48.0942L43.542 49.2588L38.2158 43.9326ZM43.0836 37.368L41.4954 38.9562L38.9562 41.4954L37.368 43.0836L35.6772 41.3928L41.3928 35.6772L43.0836 37.368ZM41.9196 40.2288L47.2458 45.555L45.555 47.2458L40.2288 41.9196L41.9196 40.2288ZM44.391 50.1066L45.9792 48.5184L48.5184 45.9792L50.1066 44.391L51.7974 46.0818L46.0818 51.7974L44.391 50.1066ZM48.0942 44.7066L42.768 39.3804L43.9326 38.2158L49.2588 43.5426L48.0942 44.7066ZM36.7956 17.4882C36.9576 17.3262 37.0134 17.0862 36.939 16.869C35.6844 13.2144 36.5952 9.25379 39.3162 6.53219C41.3562 4.49279 44.1612 3.44579 47.001 3.61859L42.2832 8.33639C42.147 8.47259 42.0846 8.66519 42.1152 8.85539L43.2924 16.2096C43.3332 16.4652 43.5342 16.6662 43.7898 16.707L51.144 17.8842C51.3336 17.9148 51.5268 17.8518 51.663 17.7162L56.3808 12.9984C56.5542 15.8388 55.5066 18.6438 53.4672 20.6832C50.7462 23.4048 46.7856 24.3156 43.1304 23.0604C42.9126 22.9848 42.6726 23.0412 42.5112 23.2038L34.5426 31.1736L32.8494 29.4804L38.997 23.3328C39.3084 23.022 39.4794 22.608 39.4794 22.1676C39.4794 21.7272 39.3078 21.3132 38.9976 21.0024C38.376 20.3808 37.2882 20.3808 36.6672 21.0024L30.5196 27.15L28.8264 25.4568L36.7956 17.4882ZM31.368 27.999L37.5162 21.8514C37.6842 21.6828 37.9806 21.6822 38.1492 21.8514C38.2338 21.9354 38.28 22.0482 38.28 22.1676C38.28 22.287 38.2338 22.3998 38.1492 22.4838L32.001 28.632L31.368 27.999ZM23.2044 42.5118C23.0424 42.6738 22.9866 42.9138 23.061 43.131C24.3156 46.7856 23.4048 50.7462 20.6838 53.4672C18.6444 55.5066 15.8424 56.5548 12.999 56.3814L17.7168 51.6636C17.853 51.5274 17.9154 51.3348 17.8848 51.1446L16.7076 43.7904C16.6668 43.5348 16.4658 43.3338 16.2102 43.293L8.856 42.1152C8.6658 42.0834 8.4726 42.147 8.337 42.2832L3.6192 47.001C3.4458 44.1606 4.4934 41.3556 6.5334 39.3162C9.255 36.5952 13.2162 35.685 16.8696 36.939C17.0862 37.0128 17.3262 36.9576 17.4888 36.7956L25.458 28.8264L27.1512 30.5196L21.0024 36.6666C20.6916 36.9774 20.52 37.3914 20.52 37.8318C20.52 38.2722 20.6916 38.6862 21.0018 38.997C21.3126 39.3078 21.7266 39.4794 22.167 39.4794C22.6074 39.4794 23.0214 39.3078 23.3322 38.997L29.4804 32.85L31.1736 34.5432L23.2044 42.5118ZM28.632 32.001L22.4844 38.1492C22.3164 38.3178 22.02 38.3184 21.8514 38.1492C21.7668 38.0652 21.7206 37.9524 21.7206 37.833C21.7206 37.7136 21.7668 37.6008 21.8514 37.5162L27.999 31.368L28.632 32.001ZM32.4462 34.1184L29.9046 31.5768L28.4226 30.0948L25.881 27.5532L9.4638 11.1366L8.4624 8.46299L11.136 9.46439L27.5532 25.8816L30.0948 28.4232L31.5768 29.9052L34.1184 32.4468L35.3214 33.6498L33.6492 35.322L32.4462 34.1184ZM33.6096 37.0584L34.0734 36.5946L36.594 34.074L37.0578 33.6102C37.3704 33.2976 37.7814 33.1416 38.1918 33.1416C38.6028 33.1416 39.0132 33.2976 39.3258 33.6102L40.5444 34.8288L34.8276 40.5456L33.609 39.327C32.9844 38.7012 32.9844 37.6836 33.6096 37.0584ZM53.862 50.4132L50.4132 53.862C50.1102 54.165 49.7082 54.3324 49.281 54.3336C48.8562 54.3378 48.4536 54.1698 48.1524 53.8686L46.9302 52.6464L52.6464 46.9302L53.8686 48.1524C54.1698 48.4536 54.3348 48.8544 54.3336 49.281C54.3324 49.7082 54.165 50.1102 53.862 50.4132Z" fill="white"></path></svg> 