<svg width="379" height="159" viewBox="0 0 379 159" fill="none" xmlns="http://www.w3.org/2000/svg">
<g clip-path="url(#clip0_4667_4045)">
<mask id="mask0_4667_4045" style="mask-type:luminance" maskUnits="userSpaceOnUse" x="0" y="0" width="379" height="159">
<path d="M379 0H0V159H379V0Z" fill="white"/>
</mask>
<g mask="url(#mask0_4667_4045)">
<path fill-rule="evenodd" clip-rule="evenodd" d="M130.296 38.8451L165.912 0.0422363L174.271 7.41045L138.653 46.2132L130.296 38.8451ZM194.505 0.0648994L158.894 38.8677L167.252 46.2347L202.864 7.43179L194.505 0.0648994ZM223.099 0.0668841L187.488 38.8697L195.847 46.2367L231.458 7.43396L223.099 0.0668841Z" fill="#EC008C"/>
<path fill-rule="evenodd" clip-rule="evenodd" d="M47.4825 97.0676C47.4825 92.6675 46.419 88.7307 44.309 85.3395C42.1991 81.9484 39.3297 79.3017 35.7849 77.4657C32.2232 75.6294 28.1721 74.6865 23.7496 74.6865C19.1753 74.6865 15.0229 75.7287 11.4106 77.7633C7.79832 79.8144 4.96253 82.5604 2.98763 85.9351C1.01269 89.3095 0.0167847 93.0644 0.0167847 97.0676C0.0167847 101.468 1.08021 105.405 3.19017 108.812C5.30015 112.204 8.16969 114.85 11.7144 116.686C15.2761 118.522 19.3272 119.465 23.7496 119.465C27.5307 119.465 31.0248 118.737 34.1646 117.348L38.5194 122.393L45.2376 116.818L41.3721 112.336C42.5874 111.095 43.6509 109.722 44.5285 108.217C46.4866 104.826 47.4825 101.087 47.4825 97.0676ZM29.185 98.209L22.4668 103.784L27.5814 109.722C26.3829 110.086 25.1 110.285 23.7496 110.285C21.2515 110.285 19.0233 109.689 17.1159 108.531C15.2085 107.357 13.7231 105.752 12.6934 103.751C11.6807 101.766 11.1574 99.4992 11.1574 97.0347C11.1574 94.4541 11.7144 92.1383 12.8116 90.153C13.9257 88.168 15.428 86.6132 17.3185 85.5214C19.209 84.4296 21.3696 83.8837 23.7328 83.8837C26.231 83.8837 28.4592 84.4792 30.3664 85.6372C32.2738 86.8118 33.7593 88.4163 34.7891 90.4178C35.8019 92.4195 36.3251 94.6692 36.3251 97.1337C36.3251 99.7142 35.768 102.03 34.6708 104.015C34.6372 104.073 34.6032 104.127 34.5696 104.18C34.5359 104.234 34.502 104.288 34.4683 104.346L29.185 98.209ZM94.5262 159C89.6142 159 85.5126 155.659 85.5126 150.167C85.5126 144.691 89.6142 141.333 94.5262 141.333C99.4383 141.333 103.54 144.691 103.54 150.167C103.54 155.642 99.4383 159 94.5262 159ZM94.5262 143.418C90.9648 143.418 88.0275 145.916 88.0275 150.117C88.0275 154.286 90.9815 156.817 94.5262 156.817C98.1047 156.817 101.042 154.286 101.042 150.117C101.025 145.916 98.088 143.418 94.5262 143.418ZM57.4247 149.29V143.583V143.567H64.6661V141.565H54.9604V158.686H57.4247V151.292H64.2441V149.29H57.4247ZM71.9076 141.582V158.702H80.516V156.668H74.3719V141.582H71.9076ZM109.836 150.167C109.836 155.659 113.938 159 118.85 159C123.762 159 127.864 155.642 127.864 150.167C127.864 144.691 123.762 141.333 118.85 141.333C113.938 141.333 109.836 144.691 109.836 150.167ZM112.351 150.117C112.351 145.916 115.288 143.418 118.85 143.418C122.428 143.418 125.366 145.916 125.366 150.117C125.366 154.286 122.428 156.817 118.85 156.817C115.305 156.817 112.351 154.286 112.351 150.117ZM144.051 158.702L139.494 151.325H137.62V158.702H135.156V141.582H140.085C143.207 141.582 145.992 143.004 145.992 146.395C145.992 149.389 143.866 150.746 142.026 151.077L147.022 158.686H144.051V158.702ZM142.346 144.162C141.57 143.6 140.625 143.534 139.409 143.534H137.62V149.34H139.426C140.641 149.34 141.57 149.29 142.363 148.744C143.157 148.182 143.477 147.487 143.477 146.428C143.461 145.419 143.14 144.708 142.346 144.162ZM162.737 158.702H168.004C173.236 158.702 177.237 155.444 177.237 150.134C177.237 144.824 173.236 141.582 168.004 141.582H162.737V158.702ZM165.185 143.633H168.004C171.953 143.633 174.739 146.164 174.739 150.117C174.739 154.071 171.953 156.602 168.004 156.602H165.185V143.633ZM184.529 141.582H194.758V143.583H186.977V148.695H194.319V150.729H186.977V156.651H194.944V158.686H184.529V141.582ZM201.358 156.122C202.185 157.065 203.94 159 206.996 159C210.051 159 213.089 157.263 213.123 153.922C213.123 151.887 211.874 150.481 210.085 149.654L206.861 148.347C205.814 147.917 204.616 147.322 204.616 145.734C204.616 144.146 205.932 143.352 207.654 143.352C209.376 143.352 210.642 144.294 211.503 145.188L212.786 143.55L212.737 143.502C212.193 142.966 210.554 141.35 207.772 141.35C204.987 141.35 202.151 142.872 202.151 145.916C202.151 147.934 203.248 149.29 205.038 150.117C205.696 150.432 206.911 150.911 207.823 151.259L207.931 151.302C208.852 151.662 210.659 152.372 210.659 154.087C210.659 155.89 209.156 156.966 207.249 156.966C205.342 156.966 203.687 155.675 202.81 154.501L201.358 156.122ZM220.364 158.702V141.582H222.829V158.702H220.364ZM230.104 150.15C230.104 155.477 234.02 159 239.017 159C243.662 159 245.822 156.84 246.356 156.307C246.393 156.271 246.422 156.241 246.444 156.221V149.571H239.354V151.523H244.064V155.312C244.064 155.312 242.764 156.883 239.152 156.883C235.505 156.883 232.636 154.352 232.636 150.134C232.636 145.916 235.388 143.385 238.983 143.385C241.717 143.385 243.338 144.625 244.384 145.816L246.055 144.311C246.006 144.263 245.949 144.205 245.887 144.139C245.085 143.322 243.142 141.333 238.983 141.333C234.037 141.333 230.104 144.824 230.104 150.15ZM266.649 158.702L256.571 145.055C256.571 145.055 256.622 147.371 256.622 149.605V158.702H254.191V141.582H256.774L266.665 155.03C266.665 155.03 266.649 152.913 266.649 150.663V141.582H269.046V158.702H266.649ZM287.579 141.582H277.35V158.686H287.766V156.651H279.798V150.729H287.141V148.695H279.798V143.583H287.579V141.582ZM304.122 158.702L299.563 151.325H297.69V158.702H295.227V141.582H300.154C303.276 141.582 306.062 143.004 306.062 146.395C306.062 149.389 303.935 150.746 302.097 151.077L307.075 158.686H304.122V158.702ZM302.417 144.162C301.642 143.6 300.694 143.534 299.481 143.534H297.673V149.34H299.481C300.694 149.34 301.625 149.29 302.417 148.744C303.211 148.182 303.531 147.487 303.531 146.428C303.531 145.419 303.211 144.708 302.417 144.162ZM312.273 156.122C313.102 157.065 314.858 159 317.913 159C320.985 159 324.022 157.263 324.039 153.922C324.039 151.887 322.789 150.481 321.002 149.654L317.777 148.347C316.731 147.917 315.532 147.322 315.532 145.734C315.532 144.146 316.85 143.352 318.569 143.352C320.292 143.352 321.559 144.294 322.419 145.188L323.703 143.55L323.652 143.502C323.109 142.966 321.471 141.35 318.688 141.35C315.905 141.35 313.068 142.872 313.068 145.916C313.068 147.934 314.166 149.29 315.953 150.117C316.612 150.432 317.828 150.911 318.739 151.259L318.846 151.302C319.768 151.662 321.576 152.372 321.576 154.087C321.576 155.89 320.074 156.966 318.165 156.966C316.258 156.966 314.604 155.675 313.727 154.501L312.273 156.122ZM73.7981 110.285C79.9591 110.285 83.0819 106.563 83.0819 99.218V75.6294H93.9354V100.045C93.9354 106.265 92.1968 111.112 88.7533 114.453C85.3101 117.794 80.2798 119.482 73.7981 119.482C67.4006 119.482 62.4043 117.794 58.9438 114.453C55.4836 111.128 53.728 106.281 53.728 100.045V75.6294H64.5816V99.2347C64.5816 102.89 65.3582 105.669 66.8604 107.489C68.3965 109.342 70.7259 110.285 73.7981 110.285ZM113.533 75.5964H102.679V118.539H113.533V75.5964ZM153.318 108.548V117.91C152.947 118.01 152.559 118.109 152.153 118.208C149.504 118.853 146.836 119.184 144.22 119.184C139.443 119.184 135.223 118.307 131.678 116.57C128.151 114.85 125.366 112.319 123.424 109.027C121.483 105.736 120.487 101.749 120.487 97.2001C120.487 94.1066 121.027 91.1952 122.108 88.5321C123.171 85.8854 124.758 83.5035 126.851 81.4853C128.927 79.4507 131.51 77.8462 134.497 76.7047C137.502 75.5468 140.861 74.9677 144.524 74.9677C147.073 74.9677 149.622 75.2656 152.137 75.8776C152.542 75.9769 152.93 76.076 153.318 76.192V85.4885C152.643 85.2734 151.968 85.0748 151.276 84.9094C149.25 84.4131 147.208 84.1652 145.25 84.1652C141.114 84.1652 137.772 85.3395 135.341 87.6718C132.894 90.0044 131.662 93.1804 131.662 97.1337C131.662 101.087 132.894 104.247 135.341 106.546C137.772 108.829 141.148 109.987 145.368 109.987C147.258 109.987 149.385 109.673 151.681 109.044C152.238 108.895 152.778 108.73 153.318 108.548ZM200.413 75.6129H187.685L171.548 94.2555V75.6129H160.863V118.539H171.548V99.0526L188.344 118.539H202.252L181.643 96.0586L200.413 75.6129ZM268.455 83.9333H254.698V75.6129H293.066V83.9333H279.309V118.539H268.455V83.9333ZM308.56 100.955H325.306V92.8661H308.56V83.8176H327.196V75.6129H298.349V118.539H328.024V110.334H308.56V100.955ZM351.149 75.6129C356.382 75.6129 360.568 76.9198 363.605 79.5003C366.609 82.0641 368.148 85.6207 368.148 90.0869C368.148 94.6195 366.626 98.209 363.656 100.773C360.669 103.354 356.432 104.66 351.081 104.66H345.764V118.555H335.5V75.6129H351.149ZM345.764 96.9022H349.427C354.996 96.9022 357.816 94.6028 357.816 90.0705C357.816 87.8372 357.106 86.1334 355.672 85.0087C354.272 83.9169 352.179 83.3545 349.427 83.3545H345.764V96.9022ZM248.013 96.9683C246.612 95.6285 244.57 94.4706 241.92 93.5113C241.194 93.2298 240.029 92.8 238.814 92.3531L238.696 92.3202C237.548 91.9065 236.248 91.427 235.303 91.063C233.058 90.2194 230.864 89.1773 230.864 86.729C230.864 83.2717 234.847 82.8912 236.569 82.8912C239.742 82.8912 243.659 84.6282 246.325 87.2087L246.444 87.3245L250.917 80.1288L250.849 80.0627C247.676 76.9859 241.785 74.7526 236.822 74.7526C231.978 74.7526 227.825 75.9769 225.142 78.2099C223.403 79.6161 220.5 82.7093 220.5 87.7382C220.5 91.2448 221.63 93.9908 223.977 96.1247C225.631 97.6963 227.572 98.5399 228.72 99.0361L229.26 99.2844C230.374 99.7474 232.636 100.558 234.155 101.087L234.56 101.236C234.869 101.347 235.17 101.452 235.455 101.55C235.637 101.613 235.813 101.674 235.978 101.732L236.046 101.766L236.059 101.77C238.085 102.498 241.127 103.591 241.127 106.463C241.127 109.143 238.831 110.863 235.286 110.863C231.826 110.863 226.914 108.548 223.859 105.487L223.74 105.372L218.542 112.882L218.626 112.964C220.786 114.916 226.644 119.465 234.307 119.465C239.219 119.465 243.27 118.258 246.309 115.876C249.617 113.345 251.524 109.557 251.524 105.471C251.524 102.163 250.36 99.3505 248.047 97.0843L248.013 96.9683ZM211.638 95.9925C211.638 98.9432 209.197 101.335 206.186 101.335C203.174 101.335 200.733 98.9432 200.733 95.9925C200.733 93.0415 203.174 90.6493 206.186 90.6493C209.197 90.6493 211.638 93.0415 211.638 95.9925ZM376.587 78.5575C376.587 77.7137 375.911 77.2506 375.151 77.2506L373.564 77.2339V81.7333H374.274V79.8641H374.848L375.945 81.7333H376.805L375.572 79.798C375.996 79.7154 376.587 79.401 376.587 78.5575ZM374.899 79.3017H374.291V77.8462H374.899C375.388 77.8462 375.86 77.9784 375.86 78.5739C375.844 79.1527 375.388 79.3017 374.899 79.3017ZM371.049 79.5003C371.049 77.3167 372.789 75.6129 375.018 75.6129C377.227 75.6129 378.983 77.3167 378.983 79.5003C378.983 81.6836 377.227 83.3874 375.018 83.3874C372.789 83.3874 371.049 81.6836 371.049 79.5003ZM371.573 79.4836C371.573 81.3528 373.108 82.8583 375.018 82.8583C376.907 82.8747 378.46 81.3528 378.46 79.4836C378.46 77.6144 376.907 76.1092 375.018 76.1092C373.108 76.1092 371.573 77.6144 371.573 79.4836Z" fill="white"/>
</g>
</g>
<defs>
<clipPath id="clip0_4667_4045">
<rect width="379" height="159" fill="white"/>
</clipPath>
</defs>
</svg>
