<?xml version="1.0" encoding="UTF-8"?> <svg xmlns="http://www.w3.org/2000/svg" width="164" height="69" viewBox="0 0 164 69" fill="none"><g clip-path="url(#clip0_4667_3948)"><mask id="mask0_4667_3948" style="mask-type:luminance" maskUnits="userSpaceOnUse" x="0" y="0" width="164" height="69"><path d="M164 0H0V69H164V0Z" fill="white"></path></mask><g mask="url(#mask0_4667_3948)"><path fill-rule="evenodd" clip-rule="evenodd" d="M56.3814 16.8573L71.7932 0.0183105L75.4101 3.21584L59.9977 20.0548L56.3814 16.8573ZM84.1657 0.0281455L68.7561 16.8671L72.3731 20.0641L87.7827 3.2251L84.1657 0.0281455ZM96.5388 0.0290068L81.1293 16.8679L84.7463 20.0649L100.156 3.22604L96.5388 0.0290068Z" fill="#EC008C"></path><path fill-rule="evenodd" clip-rule="evenodd" d="M20.5465 42.1236C20.5465 40.2142 20.0863 38.5057 19.1733 37.0341C18.2603 35.5625 17.0187 34.4139 15.4848 33.6171C13.9435 32.8203 12.1906 32.4111 10.2769 32.4111C8.29747 32.4111 6.50066 32.8634 4.93756 33.7463C3.37447 34.6364 2.14737 35.8281 1.2928 37.2925C0.438208 38.7569 0.00726318 40.3864 0.00726318 42.1236C0.00726318 44.0331 0.467425 45.7417 1.38044 47.2204C2.29347 48.6921 3.53517 49.8406 5.06903 50.6374C6.61022 51.4342 8.36321 51.8434 10.2769 51.8434C11.913 51.8434 13.425 51.5275 14.7836 50.9245L16.668 53.114L19.5751 50.6948L17.9024 48.7495C18.4283 48.211 18.8885 47.6152 19.2683 46.962C20.1156 45.4904 20.5465 43.868 20.5465 42.1236ZM12.6288 42.619L9.72178 45.0381L11.9349 47.6152C11.4163 47.7732 10.8612 47.8594 10.2769 47.8594C9.19589 47.8594 8.23174 47.6009 7.40636 47.0984C6.58099 46.5887 5.93823 45.8924 5.49268 45.0238C5.05443 44.1624 4.828 43.1789 4.828 42.1094C4.828 40.9895 5.06903 39.9845 5.54381 39.123C6.02589 38.2616 6.67595 37.5868 7.49402 37.113C8.31209 36.6392 9.24701 36.4023 10.2696 36.4023C11.3506 36.4023 12.3148 36.6608 13.1401 37.1633C13.9654 37.673 14.6082 38.3693 15.0538 39.2379C15.4921 40.1065 15.7185 41.0828 15.7185 42.1523C15.7185 43.2722 15.4774 44.2772 15.0027 45.1387C14.9881 45.1638 14.9734 45.187 14.9589 45.2104C14.9443 45.2337 14.9296 45.2571 14.9151 45.2823L12.6288 42.619ZM40.9032 69.0001C38.7777 69.0001 37.0028 67.55 37.0028 65.1667C37.0028 62.7906 38.7777 61.3334 40.9032 61.3334C43.0287 61.3334 44.8036 62.7906 44.8036 65.1667C44.8036 67.5429 43.0287 69.0001 40.9032 69.0001ZM40.9032 62.2379C39.3621 62.2379 38.0911 63.3219 38.0911 65.1452C38.0911 66.9542 39.3693 68.0525 40.9032 68.0525C42.4516 68.0525 43.7226 66.9542 43.7226 65.1452C43.7153 63.3219 42.4444 62.2379 40.9032 62.2379ZM24.8487 64.7863V62.3097V62.3025H27.9822V61.434H23.7823V68.8637H24.8487V65.6548H27.7996V64.7863H24.8487ZM31.1157 61.4411V68.8708H34.8407V67.9879H32.1821V61.4411H31.1157ZM47.528 65.1667C47.528 67.55 49.3029 69.0001 51.4284 69.0001C53.5539 69.0001 55.3289 67.5429 55.3289 65.1667C55.3289 62.7906 53.5539 61.3334 51.4284 61.3334C49.3029 61.3334 47.528 62.7906 47.528 65.1667ZM48.6163 65.1452C48.6163 63.3219 49.8873 62.2379 51.4284 62.2379C52.9769 62.2379 54.2479 63.3219 54.2479 65.1452C54.2479 66.9542 52.9769 68.0525 51.4284 68.0525C49.8945 68.0525 48.6163 66.9542 48.6163 65.1452ZM62.3336 68.8708L60.3614 65.6692H59.5507V68.8708H58.4842V61.4411H60.6171C61.9684 61.4411 63.1735 62.0585 63.1735 63.53C63.1735 64.8294 62.2532 65.418 61.457 65.5616L63.6191 68.8637H62.3336V68.8708ZM61.5958 62.561C61.2599 62.3169 60.8508 62.2881 60.3249 62.2881H59.5507V64.8078H60.3322C60.8581 64.8078 61.2599 64.7863 61.6032 64.5494C61.9465 64.3053 62.0853 64.0038 62.0853 63.5444C62.0779 63.1065 61.9391 62.7979 61.5958 62.561ZM70.4193 68.8708H72.6981C74.9624 68.8708 76.6935 67.4567 76.6935 65.1523C76.6935 62.8481 74.9624 61.4411 72.6981 61.4411H70.4193V68.8708ZM71.4784 62.3312H72.6981C74.4073 62.3312 75.6126 63.4295 75.6126 65.1452C75.6126 66.8609 74.4073 67.9592 72.6981 67.9592H71.4784V62.3312ZM79.8489 61.4411H84.2752V62.3097H80.9081V64.5278H84.0854V65.4108H80.9081V67.9807H84.3556V68.8637H79.8489V61.4411ZM87.1311 67.751C87.4891 68.1601 88.2486 69.0001 89.5707 69.0001C90.8928 69.0001 92.2075 68.2463 92.2221 66.7962C92.2221 65.9133 91.6816 65.3032 90.9074 64.9442L89.5123 64.3771C89.0595 64.1904 88.5409 63.932 88.5409 63.2428C88.5409 62.5538 89.1106 62.2092 89.8556 62.2092C90.6006 62.2092 91.1484 62.6183 91.5209 63.0059L92.0761 62.2954L92.0549 62.2745C91.8197 62.0419 91.1104 61.3406 89.9068 61.3406C88.7015 61.3406 87.4744 62.001 87.4744 63.3219C87.4744 64.1976 87.9492 64.7863 88.7235 65.1452C89.0083 65.2816 89.5342 65.4898 89.9287 65.6405L89.9754 65.6592C90.3742 65.8157 91.1557 66.1237 91.1557 66.868C91.1557 67.6505 90.5057 68.1171 89.6803 68.1171C88.8549 68.1171 88.1391 67.5572 87.7593 67.0475L87.1311 67.751ZM95.3556 68.8708V61.4411H96.422V68.8708H95.3556ZM99.5701 65.1596C99.5701 67.4711 101.265 69.0001 103.427 69.0001C105.437 69.0001 106.372 68.0626 106.603 67.8315C106.619 67.8156 106.631 67.8027 106.641 67.7941V64.9083H103.573V65.7554H105.611V67.3993C105.611 67.3993 105.048 68.0812 103.485 68.0812C101.907 68.0812 100.666 66.9829 100.666 65.1523C100.666 63.3219 101.856 62.2236 103.412 62.2236C104.595 62.2236 105.297 62.7619 105.749 63.2788L106.472 62.6256C106.451 62.6048 106.427 62.5796 106.4 62.5509C106.053 62.1962 105.212 61.3334 103.412 61.3334C101.272 61.3334 99.5701 62.8481 99.5701 65.1596ZM115.384 68.8708L111.023 62.9486C111.023 62.9486 111.045 63.9535 111.045 64.9227V68.8708H109.993V61.4411H111.111L115.391 67.2772C115.391 67.2772 115.384 66.3584 115.384 65.3821V61.4411H116.421V68.8708H115.384ZM124.441 61.4411H120.014V68.8637H124.521V67.9807H121.073V65.4108H124.251V64.5278H121.073V62.3097H124.441V61.4411ZM131.599 68.8708L129.626 65.6692H128.816V68.8708H127.75V61.4411H129.882C131.233 61.4411 132.439 62.0585 132.439 63.53C132.439 64.8294 131.518 65.418 130.723 65.5616L132.877 68.8637H131.599V68.8708ZM130.861 62.561C130.526 62.3169 130.116 62.2881 129.591 62.2881H128.809V64.8078H129.591C130.116 64.8078 130.518 64.7863 130.861 64.5494C131.205 64.3053 131.343 64.0038 131.343 63.5444C131.343 63.1065 131.205 62.7979 130.861 62.561ZM135.126 67.751C135.485 68.1601 136.245 69.0001 137.567 69.0001C138.896 69.0001 140.21 68.2463 140.218 66.7962C140.218 65.9133 139.677 65.3032 138.903 64.9442L137.508 64.3771C137.055 64.1904 136.536 63.932 136.536 63.2428C136.536 62.5538 137.106 62.2092 137.851 62.2092C138.596 62.2092 139.144 62.6183 139.516 63.0059L140.072 62.2954L140.05 62.2745C139.815 62.0419 139.106 61.3406 137.902 61.3406C136.698 61.3406 135.47 62.001 135.47 63.3219C135.47 64.1976 135.945 64.7863 136.718 65.1452C137.004 65.2816 137.53 65.4898 137.924 65.6405L137.971 65.6592C138.369 65.8157 139.152 66.1237 139.152 66.868C139.152 67.6505 138.502 68.1171 137.676 68.1171C136.851 68.1171 136.135 67.5572 135.755 67.0475L135.126 67.751ZM31.9337 47.8594C34.5997 47.8594 35.951 46.2441 35.951 43.0568V32.8203H40.6475V43.4158C40.6475 46.115 39.8952 48.2183 38.4051 49.6682C36.9152 51.1183 34.7385 51.8506 31.9337 51.8506C29.1654 51.8506 27.0034 51.1183 25.506 49.6682C24.0087 48.2254 23.2491 46.1221 23.2491 43.4158V32.8203H27.9456V43.0641C27.9456 44.6505 28.2817 45.8565 28.9317 46.6462C29.5964 47.4501 30.6043 47.8594 31.9337 47.8594ZM49.1277 32.806H44.4311V51.4414H49.1277V32.806ZM66.3435 47.1056V51.1686C66.1828 51.2117 66.0149 51.2548 65.8395 51.2979C64.6928 51.5777 63.5387 51.7213 62.4066 51.7213C60.3395 51.7213 58.5135 51.3409 56.9796 50.5872C55.453 49.8406 54.2479 48.7423 53.4079 47.3138C52.5679 45.8852 52.1369 44.1551 52.1369 42.1811C52.1369 40.8387 52.3707 39.5752 52.8382 38.4195C53.2983 37.271 53.9849 36.2373 54.8907 35.3615C55.789 34.4786 56.9065 33.7823 58.1994 33.2869C59.4996 32.7844 60.953 32.5331 62.5381 32.5331C63.6411 32.5331 64.7439 32.6624 65.8323 32.928C66.0075 32.9711 66.1756 33.0141 66.3435 33.0644V37.0987C66.0514 37.0054 65.7592 36.9192 65.4597 36.8474C64.5832 36.6321 63.6994 36.5245 62.8521 36.5245C61.0626 36.5245 59.6164 37.0341 58.5646 38.0462C57.5055 39.0585 56.9724 40.4368 56.9724 42.1523C56.9724 43.868 57.5055 45.2392 58.5646 46.237C59.6164 47.2276 61.0773 47.7301 62.9033 47.7301C63.7213 47.7301 64.6417 47.5938 65.635 47.3209C65.8761 47.2563 66.1099 47.1845 66.3435 47.1056ZM86.7221 32.8131H81.2148L74.232 40.9033V32.8131H69.6084V51.4414H74.232V42.985L81.4997 51.4414H87.5182L78.5999 41.6858L86.7221 32.8131ZM116.165 36.4239H110.212V32.8131H126.815V36.4239H120.862V51.4414H116.165V36.4239ZM133.519 43.8106H140.766V40.3003H133.519V36.3736H141.583V32.8131H129.101V51.4414H141.942V47.8809H133.519V43.8106ZM151.948 32.8131C154.213 32.8131 156.024 33.3802 157.338 34.5001C158.638 35.6127 159.304 37.1561 159.304 39.0943C159.304 41.0613 158.646 42.619 157.36 43.7317C156.068 44.8516 154.235 45.4186 151.919 45.4186H149.618V51.4486H145.177V32.8131H151.948ZM149.618 42.0519H151.203C153.613 42.0519 154.833 41.054 154.833 39.0872C154.833 38.118 154.526 37.3786 153.905 36.8905C153.3 36.4167 152.394 36.1727 151.203 36.1727H149.618V42.0519ZM107.32 42.0805C106.714 41.4991 105.83 40.9966 104.683 40.5803C104.369 40.4582 103.865 40.2717 103.339 40.0777L103.288 40.0634C102.791 39.8839 102.229 39.6758 101.82 39.5179C100.848 39.1518 99.8988 38.6995 99.8988 37.6371C99.8988 36.1367 101.623 35.9716 102.368 35.9716C103.741 35.9716 105.435 36.7254 106.589 37.8453L106.641 37.8955L108.576 34.7728L108.547 34.7441C107.174 33.4089 104.625 32.4398 102.477 32.4398C100.381 32.4398 98.5841 32.9711 97.4227 33.9401C96.6704 34.5503 95.4141 35.8927 95.4141 38.075C95.4141 39.5968 95.9034 40.7884 96.9187 41.7145C97.6345 42.3965 98.4745 42.7626 98.9712 42.9779L99.2049 43.0856C99.687 43.2866 100.666 43.6384 101.323 43.868L101.498 43.9326C101.632 43.9807 101.762 44.0261 101.885 44.0688C101.964 44.0962 102.04 44.1227 102.112 44.148L102.141 44.1624L102.147 44.1643C103.023 44.4803 104.34 44.9547 104.34 46.2011C104.34 47.364 103.346 48.1105 101.812 48.1105C100.315 48.1105 98.1896 47.1056 96.8676 45.7775L96.8164 45.7273L94.5668 48.9864L94.6033 49.0222C95.5382 49.8693 98.0727 51.8434 101.389 51.8434C103.514 51.8434 105.267 51.3194 106.582 50.2856C108.014 49.1873 108.839 47.5434 108.839 45.7703C108.839 44.3347 108.335 43.1143 107.334 42.1309L107.32 42.0805ZM91.5794 41.6571C91.5794 42.9376 90.5232 43.9757 89.2202 43.9757C87.9171 43.9757 86.8609 42.9376 86.8609 41.6571C86.8609 40.3765 87.9171 39.3383 89.2202 39.3383C90.5232 39.3383 91.5794 40.3765 91.5794 41.6571ZM162.956 34.0909C162.956 33.7248 162.664 33.5238 162.334 33.5238L161.648 33.5166V35.4691H161.955V34.658H162.203L162.678 35.4691H163.05L162.517 34.6293C162.7 34.5934 162.956 34.457 162.956 34.0909ZM162.225 34.4139H161.962V33.7823H162.225C162.437 33.7823 162.641 33.8396 162.641 34.0981C162.634 34.3493 162.437 34.4139 162.225 34.4139ZM160.56 34.5001C160.56 33.5525 161.312 32.8131 162.277 32.8131C163.233 32.8131 163.993 33.5525 163.993 34.5001C163.993 35.4476 163.233 36.187 162.277 36.187C161.312 36.187 160.56 35.4476 160.56 34.5001ZM160.786 34.4928C160.786 35.304 161.451 35.9573 162.277 35.9573C163.094 35.9645 163.766 35.304 163.766 34.4928C163.766 33.6817 163.094 33.0285 162.277 33.0285C161.451 33.0285 160.786 33.6817 160.786 34.4928Z" fill="#134395"></path></g></g><defs><clipPath id="clip0_4667_3948"><rect width="164" height="69" fill="white"></rect></clipPath></defs></svg> 