<svg id="Слой_1" data-name="Слой 1" fill="#EC008C" xmlns="http://www.w3.org/2000/svg" viewBox="0 0 834.53 397.63"><defs><style>.cls-1{fill:#ed26a6;}</style></defs><title>background_2</title><path class="cls-1" d="M1371.3,549.72q-5.37-8.84-10.45-17.78l-5.09-8.94-5-9c-6.65-12-13.1-24-19.47-36.11s-12.58-24.23-18.72-36.4-12.15-24.39-18.11-36.62l45.46.13-5.78,19.63-5.91,19.58q-6,19.54-12.18,39t-12.62,38.84L1297,541.44l-6.57,19.32-28.52,83.82-36-83.92c-5.36-12.48-10.72-25-16-37.49l-4-9.39-3.89-9.41c-2.59-6.28-5.22-12.54-7.76-18.84l-7.67-18.87-7.56-18.91q-7.59-18.88-14.73-38h70.55q-7.5,18.93-15.45,37.69t-16.35,37.35c-5.58,12.4-11.35,24.72-17.19,37S1174,546.39,1168,558.62l-34.38,69.88-19.6-69.93L1092,479.85q-5.6-19.65-11.42-39.21c-3.93-13-7.91-26-12.1-39l28.57.07q-8.41,18.6-16.42,37.36c-2.68,6.25-5.29,12.53-7.89,18.81s-5.15,12.58-7.68,18.89c-5,12.62-9.92,25.3-14.73,38s-9.48,25.48-14.1,38.26l-11.62,32.16-13.45-32.2c-5.24-12.53-10.52-25-16-37.49s-11-24.87-16.6-37.24-11.34-24.72-17.19-37-11.67-24.59-17.55-36.87l42.76.09-11.68,39.22-11.76,39.19c-4,13-7.95,26.07-12,39.07s-8.25,26-12.49,38.9L911.1,645l-37.64-84.2C867.91,548.37,862.4,536,857,523.47s-10.68-25-16-37.49l-31.8-75,76.52.12-13.54,38.49L858.56,488c-4.61,12.79-9.22,25.58-13.92,38.34q-3.48,9.58-7.07,19.12c-2.38,6.37-4.72,12.75-7.16,19.1L789,672.55,746.43,564.41,739,545.46l-7.34-19q-7.29-19-14.37-38.11t-14-38.25c-4.62-12.77-9.09-25.6-13.64-38.4h80.51c-5.31,12.5-10.58,25-15.95,37.5l-8.06,18.72L738,486.61l-8.2,18.66-8.26,18.64q-8.28,18.63-16.72,37.2l-39.13,86.58-27.76-86.47q-6.24-19.46-12.39-38.94t-12.09-39q-6-19.56-11.79-39.17t-11.44-39.3l44,.37q-9.54,18.27-19.23,36.49c-3.21,6.07-6.52,12.11-9.79,18.17s-6.53,12.11-9.88,18.13q-9.93,18.12-20.17,36.1c-6.83,12-13.77,23.94-21,35.78l-2.2,3.64-6.54-2.67,1-4.14c3.14-13.5,6.53-26.89,10-40.23s7.13-26.65,10.84-39.92c1.82-6.64,3.73-13.25,5.62-19.87s3.77-13.24,5.72-19.83c3.84-13.21,7.8-26.37,11.78-39.53l16.54-54.72,27.42,55.09q9.12,18.33,18.09,36.71t17.76,36.85q8.8,18.45,17.45,37t17.15,37.08l-66.89.1c4.16-13,8.31-25.89,12.55-38.81l6.38-19.37,6.43-19.34,6.5-19.32,6.58-19.29c4.38-12.86,8.87-25.67,13.31-38.51l36.59-105.79L770.15,380.7c5.21,12.54,10.51,25.05,15.64,37.62s10.27,25.14,15.29,37.75,10,25.25,14.9,37.91l7.3,19,7.18,19.06-84-.13c2.49-6.33,5.08-12.61,7.62-18.92s5.09-12.6,7.69-18.88c5.15-12.58,10.39-25.13,15.63-37.67l15.87-37.58,16-37.53,42.15-98.81,34.36,98.93,26.75,77c4.44,12.83,8.94,25.65,13.29,38.52s8.63,25.77,12.84,38.7l-65.18-.12q8.44-18.6,17.1-37.11c5.77-12.34,11.67-24.64,17.54-36.94L926,424.68l17.92-36.79,26.58-54.61L986.64,388c3.86,13,7.71,26.11,11.67,39.13s8,26,12,39,8.32,25.88,12.62,38.77,8.76,25.71,13.27,38.52l-25.08,0c5.23-12.55,10.43-25.12,15.44-37.75s10-25.28,14.81-38c2.39-6.36,4.78-12.72,7.09-19.12s4.64-12.78,6.88-19.2q6.8-19.23,13.12-38.65l12.09-37,16.48,37c5.52,12.41,11.26,24.74,17,37.06s11.73,24.56,17.72,36.8l36.21,73.3-54,0c3.74-13.11,7.48-26.22,11.41-39.25s7.91-26,12.09-39,8.45-25.84,12.93-38.66,9.06-25.61,13.82-38.32l34.31-91.74,36.24,91.74q7.49,18.93,14.54,38l7.07,19.1,7,19.13c2.34,6.38,4.58,12.79,6.88,19.18l3.42,9.59,3.37,9.61c4.52,12.81,8.92,25.66,13.31,38.52l-64.55-.1,8.19-18.69,8.31-18.64q8.37-18.63,16.92-37.17t17.36-37l8.86-18.43,9-18.38,28.8-58.9,16.67,59c3.7,13.1,7.37,26.21,10.88,39.38s7,26.37,10.29,39.62,6.52,26.53,9.53,39.9l2.26,10,2.16,10.06q2.16,10.07,4.05,20.23l.78,4.2-6.41,2.44Z" transform="translate(-545.4 -274.91)"/></svg>