<svg id="Слой_1" fill="#EC008C" data-name="Слой 1" xmlns="http://www.w3.org/2000/svg" viewBox="0 0 1649.38 884.95"><title>background_1</title><path d="M400.28,751.78q80.61-64,156.46-133.63c48-44.12,93.38-90.68,139.63-136.58C721.08,457,746.52,433.18,774,411.79l-30.36,23.46C768.67,416,795.29,399,824.05,386L603.7,216.56Q559.78,405,509.82,591.88q-14.13,52.85-28.74,105.56l-5.36,39.87a113,113,0,0,0,12.92,57.79,74.86,74.86,0,0,0,19.29,33.1A113.23,113.23,0,0,0,550,866.83L585.84,882l39.88,5.36a113,113,0,0,0,57.79-12.92,112.42,112.42,0,0,0,48.28-31C790.88,783.16,850,723,910.35,664c60-58.61,121.22-116,184.74-170.78q53.88-46.47,110.11-90.13l-30.36,23.46q37.25-28.76,75.64-56l-220.35-169.4L858.63,628c-7.47,18.58-16.15,37.14-21.28,56.53a128.92,128.92,0,0,0-2.74,13.63c-2.49,16.33-6.17,33.37-6,50,.46,39,9.41,63.89,25.68,98.31a150.86,150.86,0,0,0,53.82,53.82,111.65,111.65,0,0,0,55.77,17.8,113.68,113.68,0,0,0,59.81-2.68,149.93,149.93,0,0,0,66.19-38.58Q1216.38,760,1344.73,645.14q127.86-114.4,257.54-226.74,73.32-63.51,147.21-126.36a112.35,112.35,0,0,0,31-48.27A113.08,113.08,0,0,0,1793.42,186a113.06,113.06,0,0,0-12.92-57.79,112.44,112.44,0,0,0-31-48.28l-30.36-23.45A149.23,149.23,0,0,0,1643.42,36l-39.88,5.36a149.82,149.82,0,0,0-66.19,38.57Q1406.16,191.5,1276.77,305.17q-128.88,113.25-255.94,228.55-71.82,65.19-143.06,131l235.58,30.36-1-2.06,15.12,35.83a58.06,58.06,0,0,1-3.65-12.81l5.36,39.88a74.19,74.19,0,0,1,0-17.87L1123.89,778c2.23-15.76,8.09-30.5,14-45.19l19.06-47.43,39.61-98.61,78.74-196,44.13-109.84,5.36-39.87-5.36-39.88-15.12-35.83a113.45,113.45,0,0,0-38.64-42.09A75,75,0,0,0,1232.57,104a74.6,74.6,0,0,0-37.86-10.24,75.35,75.35,0,0,0-39.87,0,111.62,111.62,0,0,0-55.77,17.8c-88.53,62.65-173.3,130.91-254.29,203-72.25,64.33-141.7,131.74-210.07,200.17q-57.87,57.93-115.06,116.53L770.36,777.19Q822,590.75,867.67,402.74q12.9-53.16,25.32-106.43l5.36-39.87L893,216.56l-15.12-35.83a113.45,113.45,0,0,0-38.64-42.09,75.07,75.07,0,0,0-33.09-19.29,74.8,74.8,0,0,0-37.86-10.24,75.55,75.55,0,0,0-39.87,0,111.72,111.72,0,0,0-55.77,17.8C628,147.17,589.13,177.32,551.3,208.08c-28.85,23.45-55.43,49.52-81.58,75.89C413.14,341,355.9,397.15,295.46,450.16q-52.53,46.07-107.31,89.49a112.35,112.35,0,0,0-31,48.27,113,113,0,0,0-12.92,57.79,113,113,0,0,0,12.92,57.79,112.44,112.44,0,0,0,31,48.28l30.36,23.45a149.23,149.23,0,0,0,75.7,20.48l39.88-5.36a149.82,149.82,0,0,0,66.19-38.57Z" transform="translate(-144.12 -35.98)"/></svg>