<svg id="Слой_1" data-name="Слой 1" fill="#EC008C" xmlns="http://www.w3.org/2000/svg" viewBox="0 0 509.71 477.3"><title>bucket-icon</title><path d="M315.64,568.75c-30.35,0-60.7.12-91,0-41.5-.2-58.58-12.65-70.19-52-23.58-79.9-47.55-159.7-69.73-240C78.4,254,69.09,241.29,43.94,245.62c-5.42.93-12.48,1.2-16.64-1.52-5.67-3.69-12.6-10.4-12.83-16.07s5.76-14.58,11.29-17.14c36-16.65,78.28,3.5,90.64,42,7.22,22.46,8.36,54,23.84,64.75,16.89,11.74,47.19,4.84,71.64,4.92,92.94.29,185.88,0,278.82.19,33.78.06,38.4,6.37,29.56,39.21-14,52.12-28,104.23-42.46,156.22-10.08,36.24-28.25,50.15-65.43,50.53C380.13,569,347.88,568.75,315.64,568.75Z" transform="translate(-14.46 -205)"/><path d="M449.27,643.32c.73,20.41-16.57,39.5-37,38.83-21.77-.71-35.5-12.2-37.54-34.7-2-21.85,13.25-38.82,34.84-39.81S448.51,622.18,449.27,643.32Z" transform="translate(-14.46 -205)"/><path d="M259.72,644.11c.32,20.37-17.46,38.26-38,38.19s-39.11-18.19-37.42-38.43c1.8-21.44,13.51-35.11,36.26-36.2A37.1,37.1,0,0,1,259.72,644.11Z" transform="translate(-14.46 -205)"/></svg>