<?xml version="1.0" encoding="iso-8859-1"?>
<svg fill="#000000" height="800px" width="800px" version="1.1" id="Layer_1" xmlns="http://www.w3.org/2000/svg" xmlns:xlink="http://www.w3.org/1999/xlink" 
	 viewBox="0 0 501.333 501.333" xml:space="preserve">
<g>
	<g>
		<path d="M250.667,0C112,0,0,112,0,250.667s112,250.667,250.667,250.667s250.667-112,250.667-250.667S389.333,0,250.667,0z
			 M250.667,459.733c-115.2,0-209.067-93.867-209.067-209.067S135.467,41.6,250.667,41.6s209.067,93.867,209.067,209.067
			S365.867,459.733,250.667,459.733z"/>
	</g>
</g>
<g>
	<g>
		<path d="M310.4,229.333H272V124.8c0-11.733-9.6-21.333-21.333-21.333c-11.733,0-21.333,9.6-21.333,21.333v125.867
			c0,11.733,9.6,21.333,21.333,21.333h58.667c11.733,0,22.4-9.6,22.4-21.333S322.134,229.333,310.4,229.333z"/>
	</g>
</g>
</svg>