<svg id="Слой_1" data-name="Слой 1" xmlns="http://www.w3.org/2000/svg" viewBox="0 0 504.81 503.56"><title>phone-icon</title><path d="M107.82,150.33c60.7.08,73.18,15.79,83.78,76,9.28,52.73-2.79,92.57-45.5,123.57-16.87,12.25-17.17,24.6-6.11,42.43,38.67,62.35,88.76,112.43,151.55,150.33,14.88,9,25.95,10,37.27-4.81,6.77-8.84,16.17-15.61,23.54-24.05,20.19-23.12,44.33-33.58,75.08-25.66a73.61,73.61,0,0,0,16.73,1.8c90,1.9,95.47,42.85,82.31,126.42-4.79,30.45-32.73,40-63.17,37-168.78-17-297-99-377.75-247.22-27.78-51-43.71-110.49-54.86-168.08C17.48,169.86,39,150.24,107.82,150.33Z" transform="translate(-27 -150.33)"/></svg>