<svg id="Слой_1" data-name="Слой 1" xmlns="http://www.w3.org/2000/svg" viewBox="0 0 65.75 65.76"><defs><style>.cls-1{fill:#40c351;}.cls-1,.cls-2{fill-rule:evenodd;}.cls-2{fill:#fff;}</style></defs><title>whatsapp-icon2</title><path class="cls-1" d="M73.28,26.73a32.88,32.88,0,0,0-51.1,40.72L23,68.69,19.64,80.82l12.44-3.26,1.2.71A32.79,32.79,0,0,0,50,82.85h0A32.88,32.88,0,0,0,73.28,26.73Z" transform="translate(-17.15 -17.1)"/><path class="cls-2" d="M40.14,33.43c-.74-1.65-1.52-1.68-2.22-1.71s-1.24,0-1.9,0a3.6,3.6,0,0,0-2.63,1.23,11.06,11.06,0,0,0-3.46,8.24c0,4.87,3.54,9.57,4,10.23s6.84,11,16.89,14.91c8.34,3.3,10,2.64,11.86,2.48s5.84-2.39,6.67-4.7.82-4.29.57-4.7-.9-.66-1.89-1.15S62.21,55.35,61.31,55s-1.57-.49-2.23.5S56.53,58.73,56,59.39s-1.15.75-2.14.25a27.27,27.27,0,0,1-8-4.9,29.83,29.83,0,0,1-5.5-6.85c-.57-1-.06-1.52.44-2s1-1.15,1.48-1.73a6.89,6.89,0,0,0,1-1.64,1.86,1.86,0,0,0-.08-1.74C42.94,40.27,41,35.38,40.14,33.43Z" transform="translate(-17.15 -17.1)"/></svg>